<?xml version="1.0" standalone="no"?>
<!DOCTYPE svg PUBLIC "-//W3C//DTD SVG 20010904//EN"
 "http://www.w3.org/TR/2001/REC-SVG-20010904/DTD/svg10.dtd">
<svg version="1.0" xmlns="http://www.w3.org/2000/svg"
 width="900.000000pt" height="900.000000pt" viewBox="0 0 900.000000 900.000000"
 preserveAspectRatio="xMidYMid meet">
<metadata>
Created by potrace 1.10, written by Peter Selinger 2001-2011
</metadata>
<g transform="translate(0.000000,900.000000) scale(0.100000,-0.100000)"
fill="#05df71" stroke="none">
<path d="M5586 8913 c-4 -4 -26 -8 -49 -9 -65 -3 -169 -22 -180 -33 -6 -6 -25
-11 -42 -11 -17 0 -40 -7 -51 -15 -10 -8 -26 -15 -35 -15 -17 0 -210 -95 -218
-108 -3 -4 -23 -19 -44 -31 -41 -25 -57 -38 -128 -109 -64 -61 -99 -100 -99
-107 0 -3 -11 -21 -24 -38 -35 -46 -96 -163 -96 -184 0 -10 -7 -27 -15 -37 -8
-11 -15 -30 -15 -42 0 -12 -7 -35 -15 -50 -8 -16 -15 -39 -15 -51 0 -12 -5
-34 -11 -50 -9 -23 -33 -324 -29 -358 1 -5 5 -86 9 -180 5 -93 13 -183 20
-198 6 -16 11 -52 11 -80 0 -29 7 -65 15 -81 20 -38 19 -82 -2 -104 -61 -62
-103 -117 -103 -132 0 -11 -4 -22 -10 -25 -14 -9 -12 -78 3 -108 14 -27 92
-97 109 -97 5 0 18 -10 29 -22 25 -31 25 -97 -2 -142 l-21 -36 -466 -1 c-257
0 -866 0 -1353 1 l-885 1 -42 -30 c-22 -17 -46 -40 -53 -52 -8 -17 -11 -772
-10 -3107 1 -2846 2 -3086 18 -3112 9 -15 35 -37 58 -49 l42 -21 2779 0 2779
0 46 32 c42 28 48 38 59 87 9 42 13 513 17 1926 l4 1870 42 37 c23 21 46 38
50 38 22 0 267 250 267 272 0 3 20 36 45 74 25 37 45 74 45 81 0 7 4 21 9 31
25 45 49 145 68 272 8 55 9 216 1 290 -11 107 -30 215 -39 225 -5 5 -9 16 -9
25 0 22 -86 281 -109 328 -4 9 -16 35 -26 57 -9 22 -21 47 -26 55 -5 8 -12 22
-15 30 -21 54 -50 110 -56 110 -5 0 -8 5 -8 11 0 15 -39 97 -49 103 -5 3 -19
25 -31 48 -12 24 -43 74 -69 112 -25 37 -53 79 -61 92 -49 75 -114 161 -209
273 -25 30 -55 66 -66 79 -11 14 -43 50 -70 81 -62 68 -127 155 -148 196 -29
59 -38 123 -61 455 -18 271 -28 380 -36 410 -5 19 -12 53 -16 75 -4 22 -9 45
-11 50 -1 6 -9 39 -17 75 -20 98 -35 148 -46 155 -6 3 -10 13 -10 22 0 22 -67
161 -96 200 -13 17 -24 35 -24 38 0 4 -20 32 -44 63 -57 75 -165 174 -247 229
-40 27 -48 31 -86 53 -60 32 -166 80 -178 80 -8 0 -15 5 -15 10 0 6 -11 10
-24 10 -13 0 -43 7 -67 16 -42 15 -86 24 -209 44 -68 10 -324 13 -334 3z m381
-105 c6 -5 38 -12 70 -15 32 -2 72 -11 90 -19 17 -8 39 -14 50 -14 10 0 27 -7
37 -15 11 -8 27 -15 36 -15 9 0 37 -11 61 -25 24 -14 51 -28 59 -31 23 -11
153 -96 172 -114 74 -68 117 -117 166 -190 31 -47 59 -87 63 -90 12 -9 39 -69
39 -85 0 -10 6 -29 14 -43 34 -65 76 -204 76 -250 0 -17 5 -43 11 -59 14 -33
45 -334 64 -618 11 -158 22 -252 33 -272 7 -12 12 -31 12 -42 0 -11 6 -26 14
-33 7 -8 16 -24 20 -35 4 -12 31 -48 61 -80 30 -32 55 -61 55 -64 0 -3 12 -19
26 -35 14 -16 42 -49 62 -74 20 -24 48 -56 62 -70 38 -37 171 -203 178 -220 3
-8 18 -31 34 -51 15 -20 28 -40 28 -44 0 -4 12 -24 28 -44 38 -51 49 -69 79
-131 14 -30 29 -57 33 -60 4 -3 15 -21 25 -40 10 -19 21 -42 26 -50 39 -74 79
-158 79 -167 0 -6 7 -16 15 -23 8 -7 15 -21 15 -31 0 -16 19 -61 51 -121 5
-10 9 -28 9 -41 0 -13 7 -32 15 -43 8 -10 15 -30 15 -44 0 -14 6 -34 14 -45 7
-11 16 -47 20 -79 4 -33 10 -64 15 -70 26 -34 27 -456 1 -491 -4 -5 -11 -30
-15 -55 -4 -25 -14 -54 -21 -65 -8 -11 -14 -27 -14 -36 0 -20 -56 -125 -90
-169 -72 -92 -191 -220 -206 -220 -3 0 -32 -20 -64 -45 -32 -25 -65 -45 -73
-45 -8 0 -17 -7 -21 -15 -3 -8 -14 -15 -24 -15 -11 0 -25 -7 -32 -15 -7 -8
-20 -15 -29 -15 -9 0 -22 -5 -28 -11 -45 -45 -312 -71 -352 -35 -10 9 -24 16
-32 16 -21 0 -77 57 -100 102 -34 66 -22 195 27 290 8 14 14 33 14 41 0 8 14
39 30 70 17 31 30 65 30 76 0 11 6 32 14 48 8 15 22 46 31 68 9 22 23 54 30
70 17 37 38 90 53 130 22 60 42 213 32 240 -6 15 -10 41 -10 58 0 51 -57 208
-81 222 -5 4 -9 13 -9 21 0 7 -16 35 -35 61 -20 27 -45 62 -57 78 -27 37 -210
220 -257 258 -54 42 -103 30 -84 -20 4 -10 59 -70 123 -133 116 -115 240 -266
240 -293 0 -8 7 -20 15 -27 8 -7 15 -20 15 -30 0 -10 7 -23 15 -30 8 -7 15
-26 15 -42 0 -16 7 -45 15 -65 33 -78 15 -200 -47 -326 -15 -31 -28 -65 -28
-75 0 -9 -7 -26 -15 -36 -8 -11 -15 -27 -15 -37 0 -9 -7 -22 -15 -29 -8 -7
-15 -23 -15 -36 0 -12 -4 -25 -9 -29 -5 -3 -13 -20 -16 -38 -4 -17 -20 -59
-35 -92 -28 -60 -60 -156 -60 -180 0 -6 -7 -26 -16 -44 -16 -33 -13 -112 6
-156 43 -98 58 -118 126 -171 62 -48 119 -64 225 -65 95 0 194 16 220 37 22
17 75 24 88 11 8 -8 11 -482 11 -1853 l0 -1841 -22 -24 -23 -24 -2765 3
c-2532 2 -2766 4 -2782 19 -17 16 -18 145 -16 3069 3 3040 3 3053 23 3069 18
13 160 15 1305 14 707 -1 1295 -5 1308 -10 36 -14 37 -36 3 -100 -17 -32 -31
-66 -31 -73 0 -8 -4 -16 -8 -18 -4 -1 -32 -52 -61 -113 -28 -60 -56 -117 -61
-125 -15 -24 -46 -92 -65 -140 -19 -50 -43 -106 -56 -132 -5 -10 -9 -23 -9
-29 0 -6 -6 -25 -13 -42 -27 -64 -49 -133 -54 -167 -3 -19 -9 -39 -13 -45 -4
-5 -11 -35 -15 -65 -4 -30 -13 -66 -19 -80 -24 -51 -31 -465 -7 -479 26 -16
51 -1 52 33 3 195 9 299 19 336 7 25 14 63 17 85 3 22 12 49 19 60 8 11 14 38
14 60 0 22 12 72 26 110 15 39 29 84 31 102 3 18 11 38 19 44 8 6 14 20 14 30
0 20 3 28 38 96 12 23 22 50 22 60 0 10 7 27 15 37 8 11 15 28 15 38 0 10 4
18 9 18 5 0 13 10 16 23 8 28 100 212 126 252 18 28 21 35 34 68 3 6 9 19 14
27 5 8 18 33 28 55 25 54 53 95 65 95 5 0 40 -26 76 -58 84 -72 113 -92 182
-124 128 -60 164 -68 321 -68 105 0 156 4 181 14 19 8 57 16 84 17 27 1 60 8
74 14 53 26 101 45 115 45 12 0 46 15 95 42 8 4 40 20 70 35 30 16 57 31 58
36 2 4 8 7 14 7 6 0 27 13 48 30 21 17 43 30 48 30 6 0 15 6 19 13 4 8 20 22
35 31 40 26 150 161 172 211 2 6 9 35 16 66 12 53 11 74 -6 159 -7 33 -40 91
-56 98 -17 8 -6 58 22 104 17 26 30 53 30 58 0 6 4 10 8 10 20 0 71 215 77
326 5 86 -29 240 -66 304 -5 8 -13 25 -19 37 -8 20 -38 58 -66 87 -38 38 -94
86 -101 86 -5 0 -24 8 -43 18 -57 30 -140 46 -173 33 -16 -6 -41 -11 -56 -11
-16 0 -34 -7 -41 -15 -7 -8 -23 -15 -37 -15 -16 0 -46 -23 -97 -74 -80 -80
-114 -140 -147 -256 -14 -47 -16 -222 -4 -301 6 -38 4 -47 -10 -53 -10 -3 -23
-2 -30 4 -14 12 -153 30 -232 30 -42 0 -53 3 -58 20 -3 10 -1 28 4 39 17 32
14 285 -4 328 -8 19 -15 44 -15 54 0 9 -6 24 -13 31 -7 7 -21 32 -31 55 -18
41 -60 86 -123 131 -27 19 -45 22 -116 22 -63 0 -88 -4 -97 -15 -7 -8 -18 -15
-25 -15 -7 0 -34 -20 -59 -45 -49 -48 -56 -51 -72 -35 -21 21 17 204 67 325 5
11 13 31 19 45 6 14 19 39 30 55 11 17 23 37 27 45 13 30 70 99 104 127 19 15
36 31 37 36 7 14 121 97 169 122 26 14 55 30 63 34 37 23 131 60 164 66 20 4
39 11 42 16 3 5 22 9 42 9 20 0 53 5 72 11 19 7 60 15 90 19 76 9 392 0 407
-12z m83 -904 c19 -9 39 -23 43 -31 4 -7 14 -13 22 -13 8 0 22 -12 32 -27 10
-16 26 -37 35 -47 27 -29 58 -94 58 -119 0 -12 8 -34 17 -47 15 -21 17 -45 15
-149 -1 -86 -7 -133 -17 -154 -8 -17 -15 -38 -15 -47 0 -18 -31 -90 -53 -124
-45 -69 -73 -79 -135 -47 -20 11 -58 29 -84 40 -27 12 -48 23 -48 25 0 16 14
36 26 36 16 0 54 37 76 76 22 40 32 129 23 219 -6 64 -12 83 -39 118 -30 39
-35 42 -86 44 -41 2 -60 -2 -77 -15 -21 -19 -53 -97 -53 -132 0 -10 -4 -22
-10 -25 -5 -3 -10 -30 -10 -60 0 -30 5 -57 10 -60 6 -3 10 -23 10 -43 0 -21 7
-48 16 -60 9 -13 13 -29 10 -37 -7 -19 -65 -19 -90 0 -11 8 -26 15 -33 15 -31
0 -72 43 -78 81 -4 22 -11 41 -16 45 -5 3 -9 59 -9 124 0 65 4 121 9 124 5 4
12 25 16 48 4 23 14 48 21 56 8 7 14 19 14 26 0 8 7 19 15 26 8 7 15 20 15 30
0 9 19 30 43 46 23 16 44 32 45 37 2 4 9 7 17 7 7 0 18 7 25 14 24 29 182 29
240 0z m-1080 1 c31 -16 100 -95 100 -115 0 -6 6 -26 14 -43 29 -66 36 -164
21 -320 -7 -76 -11 -91 -31 -104 -28 -18 -71 -14 -64 7 3 8 6 69 8 136 l3 121
-48 51 c-59 63 -86 67 -133 18 -93 -95 -93 -300 0 -366 39 -28 39 -60 0 -88
-16 -12 -36 -22 -44 -22 -8 0 -18 -5 -21 -10 -3 -6 -19 -17 -35 -25 -27 -14
-31 -13 -55 8 -17 15 -29 40 -37 77 -14 70 -22 428 -10 443 6 7 13 28 17 47
14 63 95 170 129 170 8 0 19 7 26 15 17 20 121 20 160 0z m430 -673 c30 -5 68
-14 83 -20 16 -7 41 -12 57 -12 16 0 32 -4 35 -10 3 -5 13 -10 22 -10 15 0 73
-24 135 -56 14 -8 35 -14 46 -14 11 0 33 -6 49 -14 15 -8 48 -22 73 -32 25
-10 52 -24 61 -31 8 -7 28 -13 42 -13 15 0 27 -4 27 -9 0 -5 10 -13 23 -17 12
-3 30 -15 39 -24 10 -10 26 -24 36 -32 10 -7 33 -33 50 -57 28 -38 32 -52 32
-106 0 -43 -5 -66 -15 -75 -8 -7 -15 -20 -15 -30 0 -10 -7 -20 -15 -24 -8 -3
-15 -12 -15 -20 0 -26 -153 -173 -205 -197 -11 -5 -33 -18 -50 -29 -16 -11
-40 -24 -52 -29 -11 -5 -24 -15 -28 -20 -3 -6 -14 -11 -24 -11 -10 0 -24 -7
-31 -15 -7 -8 -20 -15 -29 -15 -9 0 -29 -7 -45 -15 -15 -8 -36 -15 -45 -15 -9
0 -28 -7 -43 -14 -15 -8 -48 -17 -72 -20 -24 -2 -54 -9 -65 -16 -14 -7 -86
-11 -198 -11 -140 0 -180 3 -199 16 -13 8 -30 15 -38 15 -17 0 -119 53 -153
80 -83 65 -185 235 -154 255 13 8 91 -14 112 -32 8 -7 29 -13 45 -13 16 0 38
-7 48 -15 11 -8 30 -15 44 -15 13 0 46 -7 73 -16 59 -19 271 -16 291 4 7 7 37
12 68 12 30 0 68 7 84 15 15 8 43 15 60 15 17 0 40 6 51 14 11 7 41 16 67 20
26 4 50 11 53 17 4 5 19 9 35 9 25 0 65 15 132 51 10 5 25 9 34 9 9 0 28 6 42
14 15 7 48 23 73 35 54 25 74 45 65 66 -7 20 -82 20 -116 0 -14 -8 -33 -14
-43 -15 -11 0 -30 -9 -44 -20 -14 -11 -36 -20 -49 -20 -12 0 -26 -4 -29 -10
-3 -5 -19 -10 -34 -10 -15 0 -36 -7 -47 -15 -10 -8 -33 -15 -50 -15 -16 0 -39
-7 -50 -15 -10 -8 -32 -14 -49 -15 -16 0 -50 -6 -75 -14 -203 -65 -487 -64
-612 0 -14 8 -35 14 -46 14 -11 0 -33 7 -49 15 -15 7 -49 24 -75 35 -27 12
-50 26 -54 31 -3 5 -12 9 -20 9 -24 0 -88 45 -103 73 -13 24 -12 31 5 63 10
20 37 50 59 67 22 18 51 44 65 58 14 14 32 28 40 32 8 4 29 16 45 27 17 11 37
23 45 27 8 4 31 19 50 34 19 15 45 30 58 34 12 3 22 11 22 16 0 5 10 9 22 9
12 0 29 6 37 13 23 19 88 43 146 55 52 11 162 8 255 -6z"/>
<path d="M2820 3850 l-285 -5 3 -100 c2 -64 7 -102 15 -107 6 -4 236 -8 510
-7 370 1 501 -2 512 -11 11 -9 12 -17 2 -38 -6 -15 -17 -31 -24 -35 -7 -4 -13
-16 -13 -26 0 -10 -7 -24 -15 -31 -8 -7 -15 -18 -15 -24 0 -6 -20 -42 -45 -79
-25 -38 -45 -73 -45 -78 0 -5 -11 -26 -24 -47 -27 -43 -117 -229 -139 -287 -8
-22 -29 -73 -46 -114 -17 -40 -31 -80 -31 -87 0 -8 -4 -22 -10 -32 -5 -9 -13
-37 -19 -62 -5 -25 -18 -79 -29 -120 -28 -108 -55 -352 -56 -520 l-1 -145 105
0 105 0 6 180 c6 187 24 378 40 407 5 9 11 36 15 60 14 99 90 328 114 343 5 3
10 15 10 25 0 16 15 52 42 100 4 8 11 22 14 30 16 40 67 134 80 147 8 8 14 23
14 34 0 10 4 19 9 19 5 0 13 9 16 21 4 11 25 48 48 82 23 35 51 78 61 97 11
19 25 40 30 47 63 72 66 82 66 228 0 101 -3 135 -12 136 -37 4 -762 3 -1008
-1z"/>
<path d="M4275 3851 c-3 -2 -5 -242 -5 -532 l0 -528 33 -5 c17 -3 62 -8 99
-11 l67 -5 33 36 c91 101 118 118 244 148 57 14 79 15 110 7 21 -6 55 -11 74
-11 98 -1 260 -142 260 -227 0 -10 7 -31 15 -47 22 -41 21 -270 -1 -340 -9
-28 -21 -58 -25 -66 -5 -8 -13 -25 -18 -36 -11 -26 -80 -94 -94 -94 -6 0 -18
-6 -26 -14 -55 -47 -259 -63 -358 -28 -52 19 -115 59 -146 96 -27 32 -57 93
-57 116 0 28 -27 35 -130 35 l-85 0 1 -52 c1 -29 11 -72 22 -95 10 -24 23 -54
27 -68 9 -29 142 -165 176 -180 13 -5 31 -14 39 -19 47 -27 164 -52 260 -56
36 -1 75 -5 87 -9 13 -4 34 -1 50 7 15 8 52 17 82 20 30 4 59 11 65 17 5 5 20
10 32 10 12 0 27 7 34 15 7 8 17 15 22 15 12 0 128 89 128 98 0 4 10 18 23 32
101 109 148 358 112 588 -10 59 -24 117 -31 129 -8 12 -14 29 -14 37 0 48
-104 182 -179 231 -55 36 -114 65 -133 65 -8 0 -20 6 -26 13 -20 19 -356 21
-372 1 -7 -7 -22 -14 -34 -14 -12 0 -30 -6 -41 -13 -30 -19 -96 -40 -103 -32
-4 4 -8 118 -10 254 -3 227 -2 249 15 269 18 22 22 22 373 28 435 6 468 8 487
27 12 12 14 31 8 101 l-7 86 -217 1 c-119 0 -361 2 -539 3 -177 1 -325 0 -327
-3z"/>
<path d="M5795 3842 c-9 -23 -6 -1070 3 -1076 5 -3 32 2 62 11 41 12 58 13 72
4 26 -16 75 -13 90 6 89 115 192 168 333 173 49 2 164 -24 210 -48 74 -38 155
-148 155 -210 0 -15 5 -33 12 -40 7 -7 13 -57 16 -127 4 -92 1 -121 -12 -149
-9 -19 -16 -50 -16 -69 0 -19 -7 -40 -15 -47 -8 -7 -15 -17 -15 -22 0 -18 -46
-71 -92 -103 -73 -53 -129 -67 -244 -63 -195 8 -314 90 -348 241 l-6 27 -101
0 c-83 0 -101 -3 -106 -16 -7 -19 25 -161 41 -184 6 -8 20 -32 31 -53 24 -49
108 -125 171 -156 27 -13 58 -28 68 -34 57 -28 302 -45 386 -27 94 21 164 43
181 57 8 7 22 13 30 13 38 1 209 195 209 238 0 11 7 25 15 32 8 7 15 27 15 44
0 18 5 37 12 44 17 17 17 397 0 414 -7 7 -12 23 -12 38 0 14 -14 52 -30 85
-16 33 -30 66 -30 72 0 15 -78 94 -140 143 -57 45 -103 70 -127 70 -10 0 -25
6 -31 13 -10 9 -60 12 -182 12 -122 0 -172 -3 -181 -12 -7 -7 -20 -13 -28 -13
-9 0 -29 -7 -45 -15 -15 -8 -34 -15 -41 -15 -7 0 -18 -7 -25 -15 -18 -22 -28
-19 -46 16 -11 23 -17 70 -20 172 -3 77 -2 147 2 156 4 9 8 43 9 76 1 33 5 75
9 93 l8 32 419 0 420 0 -3 110 -3 110 -537 2 c-440 3 -539 1 -543 -10z"/>
<path d="M4992 6988 c-7 -7 -12 -29 -12 -50 0 -31 4 -38 20 -38 21 0 34 32 28
71 -4 27 -19 34 -36 17z"/>
<path d="M5377 6993 c-2 -5 -7 -24 -11 -44 -8 -46 9 -64 48 -49 23 8 26 15 26
55 0 43 -1 45 -29 45 -17 0 -32 -3 -34 -7z"/>
</g>
</svg>
